<?xml version="1.0" encoding="iso-8859-1"?>
<!-- Generator: Adobe Illustrator 19.0.0, SVG Export Plug-In . SVG Version: 6.00 Build 0)  -->
<svg xmlns="http://www.w3.org/2000/svg" xmlns:xlink="http://www.w3.org/1999/xlink" version="1.1" id="Layer_1" x="0px" y="0px" viewBox="0 0 512 512" style="enable-background:new 0 0 512 512;" xml:space="preserve" width="512" height="512">
<linearGradient id="SVGID_1_" gradientUnits="userSpaceOnUse" x1="0" y1="256" x2="512" y2="256">
	<stop offset="0" style="stop-color:#00F2FE"/>
	<stop offset="0.0208" style="stop-color:#03EFFE"/>
	<stop offset="0.2931" style="stop-color:#24D2FE"/>
	<stop offset="0.5538" style="stop-color:#3CBDFE"/>
	<stop offset="0.7956" style="stop-color:#4AB0FE"/>
	<stop offset="1" style="stop-color:#4FACFE"/>
</linearGradient>
<path style="fill:url(#SVGID_1_);" d="M361.2,79.916c7.778,7.842,7.726,20.506-0.116,28.284c-3.9,3.868-8.993,5.799-14.083,5.8  c-5.146,0-10.29-1.973-14.201-5.916l-61.653-62.162C267.359,42.103,262.334,40,257,40s-10.359,2.103-14.146,5.922L181.2,108.084  c-7.778,7.842-20.441,7.894-28.284,0.116c-7.842-7.778-7.895-20.442-0.116-28.284l61.653-62.162C225.809,6.305,240.919,0,257,0  s31.191,6.305,42.547,17.754L361.2,79.916z M332.8,403.916l-61.653,62.162C267.359,469.897,262.334,472,257,472  s-10.359-2.103-14.146-5.922L181.2,403.916c-7.778-7.842-20.441-7.894-28.284-0.116c-7.842,7.778-7.895,20.442-0.116,28.284  l61.653,62.162C225.809,505.695,240.919,512,257,512s31.191-6.305,42.547-17.754l61.653-62.162  c7.778-7.842,7.726-20.506-0.116-28.284C353.241,396.021,340.578,396.074,332.8,403.916z M108.084,180.2  c7.842-7.778,7.895-20.442,0.116-28.284s-20.441-7.894-28.284-0.116l-62.162,61.653C6.305,224.809,0,239.919,0,256  s6.305,31.191,17.754,42.547L79.916,360.2c3.9,3.868,8.993,5.8,14.083,5.8c5.146,0,10.291-1.974,14.201-5.916  c7.778-7.842,7.726-20.506-0.116-28.284l-62.162-61.653C42.103,266.359,40,261.334,40,256s2.103-10.359,5.922-14.146L108.084,180.2z   M494.246,213.453L432.084,151.8c-7.843-7.778-20.506-7.727-28.284,0.116c-7.778,7.842-7.726,20.506,0.116,28.284l62.162,61.653  C469.897,245.641,472,250.666,472,256s-2.103,10.359-5.922,14.146L403.916,331.8c-7.842,7.778-7.895,20.442-0.116,28.284  C407.71,364.027,412.854,366,418,366c5.09,0,10.184-1.932,14.083-5.8l62.162-61.653C505.695,287.191,512,272.081,512,256  S505.695,224.809,494.246,213.453z M257,326c-38.598,0-70-31.402-70-70s31.402-70,70-70s70,31.402,70,70S295.598,326,257,326z   M257,286c16.542,0,30-13.458,30-30s-13.458-30-30-30s-30,13.458-30,30S240.458,286,257,286z"/>















</svg>
