<?xml version="1.0" encoding="iso-8859-1"?>
<!-- Generator: Adobe Illustrator 16.0.0, SVG Export Plug-In . SVG Version: 6.00 Build 0)  -->
<!DOCTYPE svg PUBLIC "-//W3C//DTD SVG 1.1//EN" "http://www.w3.org/Graphics/SVG/1.1/DTD/svg11.dtd">
<svg version="1.1" id="Capa_1" xmlns="http://www.w3.org/2000/svg" xmlns:xlink="http://www.w3.org/1999/xlink" x="0px" y="0px"
	 width="96.706px" height="96.707px" viewBox="0 0 96.706 96.707" style="enable-background:new 0 0 96.706 96.707;"
	 xml:space="preserve">
<g>
	<g>
		<path d="M72.646,46.899c-1.361-0.407-2.297-0.687-1.582-2.474c1.543-3.888,1.701-7.238,0.027-9.63
			c-3.139-4.483-11.729-4.242-21.574-0.12c0-0.006-3.091,1.354-2.301-1.101c1.515-4.868,1.286-8.945-1.07-11.3
			c-5.341-5.346-19.545,0.202-31.729,12.379C5.297,43.777,0,53.446,0,61.806c0,15.992,20.509,25.715,40.572,25.715
			c26.3,0,43.794-15.281,43.794-27.412C84.367,52.779,78.193,48.619,72.646,46.899z M40.625,81.79
			c-16.008,1.579-29.828-5.654-30.868-16.167c-1.039-10.509,11.1-20.311,27.105-21.893c16.011-1.585,29.832,5.651,30.869,16.159
			C68.77,70.403,56.635,80.207,40.625,81.79z"/>
		<path d="M90.109,17.633L90.109,17.633c-6.35-7.041-15.719-9.725-24.365-7.887h-0.003c-1.999,0.427-3.276,2.396-2.847,4.395
			c0.426,1.998,2.394,3.275,4.395,2.849c6.15-1.307,12.809,0.605,17.324,5.606c4.511,5.001,5.736,11.822,3.804,17.803l0.001,0.003
			c-0.63,1.949,0.436,4.033,2.387,4.662c1.943,0.629,4.03-0.437,4.66-2.378c0-0.003,0-0.01,0.001-0.015
			C98.178,34.255,96.464,24.667,90.109,17.633z"/>
		<path d="M68.488,22.6c-1.723,0.365-2.821,2.062-2.449,3.785c0.367,1.716,2.062,2.818,3.777,2.444v0.003
			c2.061-0.437,4.293,0.199,5.806,1.872c1.513,1.679,1.92,3.963,1.271,5.967h0.002c-0.539,1.674,0.375,3.472,2.051,4.016
			c1.677,0.536,3.474-0.378,4.014-2.056c1.323-4.1,0.497-8.769-2.602-12.196C77.264,23.006,72.701,21.705,68.488,22.6z"/>
		<polygon points="80.355,26.435 80.355,26.435 80.355,26.436 		"/>
		<path d="M42.225,51.818c-7.617-1.983-16.229,1.813-19.537,8.527c-3.369,6.846-0.112,14.444,7.584,16.931
			c7.974,2.57,17.37-1.37,20.638-8.759C54.133,61.292,50.109,53.855,42.225,51.818z M36.408,69.302
			c-1.549,2.47-4.863,3.552-7.362,2.411c-2.461-1.119-3.188-3.99-1.638-6.398c1.529-2.398,4.732-3.468,7.213-2.429
			C37.126,63.956,37.929,66.805,36.408,69.302z M41.509,62.752c-0.56,0.959-1.798,1.419-2.768,1.021
			c-0.954-0.393-1.253-1.463-0.711-2.404c0.558-0.936,1.748-1.393,2.699-1.016C41.697,60.707,42.043,61.791,41.509,62.752z"/>
	</g>
</g>
<g>
</g>
<g>
</g>
<g>
</g>
<g>
</g>
<g>
</g>
<g>
</g>
<g>
</g>
<g>
</g>
<g>
</g>
<g>
</g>
<g>
</g>
<g>
</g>
<g>
</g>
<g>
</g>
<g>
</g>
</svg>
